GIL02_free2_ik
nRows=3
nColumns=375

# SIMM Motion File Header:
name GIL02_free2_ik
datacolumns 375
datarows 3
otherdata 1
range 0.36667000 0.38333000
endheader
time	pelvis_tx	pelvis_ty	pelvis_tz	pelvis_tilt	pelvis_list	pelvis_rotation	hip_flexion_r	hip_adduction_r	hip_rotation_r	knee_angle_r	ankle_angle_r	hip_flexion_l	hip_adduction_l	hip_rotation_l	knee_angle_l	ankle_angle_l	lumbar_extension	lumbar_bending	lumbar_rotation	subtalar_angle_r	mtp_angle_r	subtalar_angle_l	mtp_angle_l	asis_r_px	asis_r_py	asis_r_pz	asis_l_px	asis_l_py	asis_l_pz	midasis_px	midasis_py	midasis_pz	psis_r_px	psis_r_py	psis_r_pz	psis_l_px	psis_l_py	psis_l_pz	hip_r_px	hip_r_py	hip_r_pz	hip_l_px	hip_l_py	hip_l_pz	midhip_px	midhip_py	midhip_pz	epicondLat_r_px	epicondLat_r_py	epicondLat_r_pz	epicondMed_r_px	epicondMed_r_py	epicondMed_r_pz	thighwand_r_px	thighwand_r_py	thighwand_r_pz	upperleg1_r_px	upperleg1_r_py	upperleg1_r_pz	upperleg2_r_px	upperleg2_r_py	upperleg2_r_pz	malleolusLat_r_px	malleolusLat_r_py	malleolusLat_r_pz	malleolusMedv_r_px	malleolusMedv_r_py	malleolusMedv_r_pz	shankwand_r_px	shankwand_r_py	shankwand_r_pz	lowerleg1_r_px	lowerleg1_r_py	lowerleg1_r_pz	knee_r_px	knee_r_py	knee_r_pz	ankle_r_px	ankle_r_py	ankle_r_pz	toe_r_px	toe_r_py	toe_r_pz	epicondLat_l_px	epicondLat_l_py	epicondLat_l_pz	epicondMed_l_px	epicondMed_l_py	epicondMed_l_pz	thighwand_l_px	thighwand_l_py	thighwand_l_pz	upperleg1_l_px	upperleg1_l_py	upperleg1_l_pz	upperleg2_l_px	upperleg2_l_py	upperleg2_l_pz	malleolusLat_l_px	malleolusLat_l_py	malleolusLat_l_pz	malleolusMedv_l_px	malleolusMedv_l_py	malleolusMedv_l_pz	shankwand_l_px	shankwand_l_py	shankwand_l_pz	lowerleg1_l_px	lowerleg1_l_py	lowerleg1_l_pz	knee_l_px	knee_l_py	knee_l_pz	ankle_l_px	ankle_l_py	ankle_l_pz	toe_l_px	toe_l_py	toe_l_pz	subclavicle_r_px	subclavicle_r_py	subclavicle_r_pz	subclavicle_l_px	subclavicle_l_py	subclavicle_l_pz	neck_px	neck_py	neck_pz	sternalnotch_px	sternalnotch_py	sternalnotch_pz	xyphoidprocess_px	xyphoidprocess_py	xyphoidprocess_pz	midhip_tx	midhip_ty	midhip_tz	hip_r_tx	hip_r_ty	hip_r_tz	hip_l_tx	hip_l_ty	hip_l_tz	knee_r_tx	knee_r_ty	knee_r_tz	knee_l_tx	knee_l_ty	knee_l_tz	ankle_r_tx	ankle_r_ty	ankle_r_tz	ankle_l_tx	ankle_l_ty	ankle_l_tz	midasis_tx	midasis_ty	midasis_tz	asis_r_tx	asis_r_ty	asis_r_tz	asis_l_tx	asis_l_ty	asis_l_tz	psis_r_tx	psis_r_ty	psis_r_tz	psis_l_tx	psis_l_ty	psis_l_tz	epicondLat_r_tx	epicondLat_r_ty	epicondLat_r_tz	epicondLat_l_tx	epicondLat_l_ty	epicondLat_l_tz	epicondMed_r_tx	epicondMed_r_ty	epicondMed_r_tz	epicondMed_l_tx	epicondMed_l_ty	epicondMed_l_tz	malleolusLat_r_tx	malleolusLat_r_ty	malleolusLat_r_tz	malleolusLat_l_tx	malleolusLat_l_ty	malleolusLat_l_tz	malleolusMedv_r_tx	malleolusMedv_r_ty	malleolusMedv_r_tz	malleolusMedv_l_tx	malleolusMedv_l_ty	malleolusMedv_l_tz	neck_tx	neck_ty	neck_tz	subclavicle_r_tx	subclavicle_r_ty	subclavicle_r_tz	subclavicle_l_tx	subclavicle_l_ty	subclavicle_l_tz	sternalnotch_tx	sternalnotch_ty	sternalnotch_tz	xyphoidprocess_tx	xyphoidprocess_ty	xyphoidprocess_tz	thighwand_r_tx	thighwand_r_ty	thighwand_r_tz	thighwand_l_tx	thighwand_l_ty	thighwand_l_tz	upperleg1_r_tx	upperleg1_r_ty	upperleg1_r_tz	upperleg1_l_tx	upperleg1_l_ty	upperleg1_l_tz	upperleg2_r_tx	upperleg2_r_ty	upperleg2_r_tz	upperleg2_l_tx	upperleg2_l_ty	upperleg2_l_tz	shankwand_r_tx	shankwand_r_ty	shankwand_r_tz	shankwand_l_tx	shankwand_l_ty	shankwand_l_tz	lowerleg1_r_tx	lowerleg1_r_ty	lowerleg1_r_tz	lowerleg1_l_tx	lowerleg1_l_ty	lowerleg1_l_tz	toe_r_tx	toe_r_ty	toe_r_tz	toe_l_tx	toe_l_ty	toe_l_tz	ground_force_vx	ground_force_vy	ground_force_vz	ground_force_px	ground_force_py	ground_force_pz	ground_force_vx	ground_force_vy	ground_force_vz	ground_force_px	ground_force_py	ground_force_pz	ground_torque_x	ground_torque_y	ground_torque_z	ground_torque_x	ground_torque_y	ground_torque_z	ground_marker_px	ground_marker_py	ground_marker_pz	ground_marker_px	ground_marker_py	ground_marker_pz	ground_marker_px	ground_marker_py	ground_marker_pz	ground_marker_px	ground_marker_py	ground_marker_pz	ground_marker_px	ground_marker_py	ground_marker_pz	ground_marker_px	ground_marker_py	ground_marker_pz	ground_marker_px	ground_marker_py	ground_marker_pz	ground_marker_px	ground_marker_py	ground_marker_pz	ground_marker_px	ground_marker_py	ground_marker_pz	ground_marker_px	ground_marker_py	ground_marker_pz	ground_marker_px	ground_marker_py	ground_marker_pz	ground_marker_px	ground_marker_py	ground_marker_pz	ground_marker_px	ground_marker_py	ground_marker_pz	ground_marker_px	ground_marker_py	ground_marker_pz	ground_marker_px	ground_marker_py	ground_marker_pz	ground_marker_px	ground_marker_py	ground_marker_pz	ground_marker_px	ground_marker_py	ground_marker_pz	ground_marker_px	ground_marker_py	ground_marker_pz	ground_marker_px	ground_marker_py	ground_marker_pz	ground_marker_px	ground_marker_py	ground_marker_pz	ground_marker_px	ground_marker_py	ground_marker_pz	ground_marker_px	ground_marker_py	ground_marker_pz	ground_marker_px	ground_marker_py	ground_marker_pz	ground_marker_px	ground_marker_py	ground_marker_pz	ground_marker_px	ground_marker_py	ground_marker_pz	ground_marker_px	ground_marker_py	ground_marker_pz	ground_marker_px	ground_marker_py	ground_marker_pz	ground_marker_px	ground_marker_py	ground_marker_pz	ground_marker_px	ground_marker_py	ground_marker_pz	ground_marker_px	ground_marker_py	ground_marker_pz	ground_marker_px	ground_marker_py	ground_marker_pz	ground_marker_px	ground_marker_py	ground_marker_pz	ground_marker_px	ground_marker_py	ground_marker_pz	ground_marker_px	ground_marker_py	ground_marker_pz	ground_marker_px	ground_marker_py	ground_marker_pz	ground_marker_px	ground_marker_py	ground_marker_pz	ground_marker_px	ground_marker_py	ground_marker_pz
      0.36667000	      1.44934060	      0.95346429	     -0.20426030	      0.59441856	      3.23645493	      1.04010615	     -5.12524302	     -2.09927823	     12.52185479	     -3.73307698	      8.69624915	     21.86287706	      2.71681327	     -0.89027255	    -37.06744877	     -0.11738025	     -2.70517045	     -0.68083107	      4.43978221	      0.00000000	      0.00000000	      0.00000000	      0.00000000	      1.49788361	      0.94760046	     -0.08798049	      1.49560409	      0.96747490	     -0.32529854	      1.46236214	      0.95361273	     -0.20449635	      1.31069336	      1.00525439	     -0.16840717	      1.31462645	      1.00900743	     -0.25421072	      1.38567425	      0.88695153	     -0.12899467	      1.38276321	      0.89569171	     -0.28408539	      1.38421873	      0.89132162	     -0.20654003	      1.39230444	      0.45706105	     -0.06875471	      1.33826193	      0.46882203	     -0.16624537	      1.46820666	      0.56457971	     -0.01262464	      1.46747663	      0.63036987	     -0.08251656	      1.44972925	      0.54443323	     -0.10115688	      1.28490601	      0.06074235	     -0.09064753	      1.29181961	      0.07589525	     -0.16055397	      1.34803958	      0.18369586	     -0.00830604	      1.31359988	      0.15819047	     -0.07692288	      1.34868077	      0.46932116	     -0.13551254	      1.29255532	      0.07563225	     -0.13646392	      1.41512808	      0.03535696	     -0.13454796	      1.56008603	      0.49613206	     -0.35920176	      1.55156924	      0.49729851	     -0.24887093	      1.66247752	      0.64767272	     -0.29813391	      1.57803445	      0.67844374	     -0.33699490	      1.59132111	      0.59250676	     -0.33755365	      1.41743995	      0.11319758	     -0.32921487	      1.44787010	      0.11887558	     -0.26972087	      1.47640056	      0.23971771	     -0.41578830	      1.45399569	      0.20743870	     -0.34456015	      1.54647960	      0.50493187	     -0.28909004	      1.44635739	      0.12007288	     -0.29010593	      1.54485546	      0.05717138	     -0.33802825	      1.40888721	      1.35293770	     -0.13150770	      1.41149891	      1.36171613	     -0.23945032	      1.27621168	      1.42257379	     -0.17394225	      1.39262531	      1.36399013	     -0.18245976	      1.48419539	      1.20674609	     -0.20479514	      1.38098700	      0.89662000	     -0.19876800	      1.38239000	      0.87435100	     -0.13073200	      1.38061200	      0.88199200	     -0.28095700	      1.35264500	      0.47060400	     -0.12907900	      1.54533600	      0.48737100	     -0.28580800	      1.28824100	      0.06983900	     -0.15824200	      1.44739400	      0.10812000	     -0.28073800	      1.46676400	      0.96611600	     -0.20238100	      1.46817500	      0.96005200	     -0.08315400	      1.46535400	      0.97218000	     -0.32160700	      1.27806900	      1.00377800	     -0.16664300	      1.28318400	      1.00333600	     -0.25251500	      1.36623200	      0.46983600	     -0.07218400	      1.54483500	      0.48787500	     -0.34380400	      1.33036400	      0.47857200	     -0.18136400	      1.55806100	      0.48796200	     -0.22522600	      1.27968500	      0.06837200	     -0.11919500	      1.42475000	      0.11355000	     -0.31202300	      1.29603100	      0.08375600	     -0.18723000	      1.45808600	      0.11930800	     -0.25519400	      1.27875400	      1.43083900	     -0.17426400	      1.40648400	      1.35173900	     -0.13159400	      1.41116400	      1.36128600	     -0.23733700	      1.39174500	      1.36433000	     -0.18150300	      1.47287000	      1.20152500	     -0.20449900	      1.42640800	      0.56911500	     -0.00086900	      1.66092700	      0.63542400	     -0.30132800	      1.43507400	      0.63688800	     -0.06417100	      1.57474900	      0.65763100	     -0.33685500	      1.42471700	      0.55233800	     -0.09158500	      1.58980100	      0.57104700	     -0.32758700	      1.32780500	      0.18840400	     -0.02626400	      1.46800600	      0.24360400	     -0.39969200	      1.30394800	      0.16285500	     -0.09977800	      1.45440500	      0.20925300	     -0.32707000	      1.40985600	      0.03966700	     -0.13952100	      1.54735700	      0.05316500	     -0.31422900	    -12.46218243	    536.39560449	    -19.27425299	      1.38442505	      0.00000000	     -0.14336176	      0.00000000	      0.00000000	      0.00000000	      1.83119482	      0.00000000	     -0.22814032	      0.00000000	      2.32241162	      0.00000000	      0.00000000	      0.00000000	      0.00000000	      1.38098729	      0.89662027	     -0.19876766	      1.38238966	      0.87435108	     -0.13073246	      1.38061225	      0.88199174	     -0.28095713	      1.35264468	      0.47060412	     -0.12907919	      1.54533601	      0.48737070	     -0.28580835	      1.28824055	      0.06983893	     -0.15824203	      1.44739413	      0.10812013	     -0.28073812	      1.46676445	      0.96611643	     -0.20238051	      1.46817505	      0.96005237	     -0.08315354	      1.46535397	      0.97218049	     -0.32160747	      1.27806890	      1.00377822	     -0.16664293	      1.28318357	      1.00333619	     -0.25251454	      1.36623168	      0.46983612	     -0.07218409	      1.54483545	      0.48787469	     -0.34380400	      1.33036423	      0.47857234	     -0.18136400	      1.55806112	      0.48796216	     -0.22522600	      1.27968490	      0.06837249	     -0.11919526	      1.42474973	      0.11354980	     -0.31202316	      1.29603088	      0.08375648	     -0.18723041	      1.45808578	      0.11930795	     -0.25519398	      1.27875388	      1.43083906	     -0.17426373	      1.40648437	      1.35173941	     -0.13159393	      1.41116369	      1.36128604	     -0.23733710	      1.39174461	      1.36433017	     -0.18150280	      1.47286963	      1.20152545	     -0.20449938	      1.42640817	      0.56911480	     -0.00086896	      1.66092730	      0.63542432	     -0.30132821	      1.43507385	      0.63688827	     -0.06417058	      1.57474852	      0.65763122	     -0.33685467	      1.42471659	      0.55233765	     -0.09158474	      1.58980060	      0.57104695	     -0.32758659	      1.32780457	      0.18840420	     -0.02626426	      1.46800578	      0.24360359	     -0.39969218	      1.30394828	      0.16285473	     -0.09977834	      1.45440483	      0.20925285	     -0.32707027	      1.40985644	      0.03966743	     -0.13952057	      1.54735684	      0.05316465	     -0.31422859
      0.37500000	      1.45871712	      0.95237051	     -0.20373135	      0.61304725	      3.33136806	      0.71353003	     -5.82083545	     -2.20535148	     13.08720543	     -3.58494516	      9.22313590	     22.10212595	      2.83788252	     -0.55749026	    -34.42378969	      0.01495551	     -2.75033624	     -0.77642620	      4.60497624	      0.00000000	      0.00000000	      0.00000000	      0.00000000	      1.50659976	      0.94630680	     -0.08718829	      1.50566643	      0.96658856	     -0.32448099	      1.47173980	      0.95251928	     -0.20389328	      1.31986855	      1.00409986	     -0.16857646	      1.32428830	      1.00800015	     -0.25434975	      1.39462508	      0.88572906	     -0.12894237	      1.39259383	      0.89473544	     -0.28403188	      1.39360945	      0.89023225	     -0.20648712	      1.39643829	      0.45575766	     -0.06894282	      1.34205251	      0.46821367	     -0.16615587	      1.47389503	      0.56233497	     -0.01314206	      1.47359859	      0.62816688	     -0.08299785	      1.45473636	      0.54245764	     -0.10159029	      1.28522087	      0.06057244	     -0.09074433	      1.29193371	      0.07574026	     -0.16066710	      1.34991020	      0.18283259	     -0.00857814	      1.31489627	      0.15773087	     -0.07705308	      1.35261200	      0.46858562	     -0.13547030	      1.29278504	      0.07544261	     -0.13658126	      1.41534570	      0.03511100	     -0.13513344	      1.57244926	      0.49606013	     -0.35781390	      1.56259555	      0.49696136	     -0.24759193	      1.67347284	      0.64788925	     -0.29520378	      1.58937983	      0.67839672	     -0.33501991	      1.60302481	      0.59251599	     -0.33559327	      1.44871866	      0.10738940	     -0.33042992	      1.47808741	      0.11442170	     -0.27054844	      1.50231658	      0.23695020	     -0.41598645	      1.48068222	      0.20338892	     -0.34511363	      1.55741593	      0.50499322	     -0.28784953	      1.47676861	      0.11559838	     -0.29094816	      1.57900153	      0.05810024	     -0.33782471	      1.41825656	      1.35179044	     -0.13119484	      1.42116406	      1.36058256	     -0.23912878	      1.28573964	      1.42151643	     -0.17397596	      1.40213872	      1.36286040	     -0.18218884	      1.49366916	      1.20556167	     -0.20430055	      1.39047100	      0.89585000	     -0.19927700	      1.39111900	      0.87317500	     -0.13105700	      1.39018200	      0.88104700	     -0.28127800	      1.35663600	      0.47008200	     -0.12934900	      1.55682000	      0.48670600	     -0.28530700	      1.28834100	      0.06982300	     -0.15847800	      1.47809700	      0.10314100	     -0.28033800	      1.47587900	      0.96506400	     -0.20209000	      1.47662200	      0.95881700	     -0.08288400	      1.47513500	      0.97131100	     -0.32129600	      1.28712100	      1.00270700	     -0.16742100	      1.29253300	      1.00225900	     -0.25337400	      1.37049600	      0.46913700	     -0.07252300	      1.55699800	      0.48737400	     -0.34330300	      1.33580000	      0.47737100	     -0.18147500	      1.56945500	      0.48855100	     -0.22307000	      1.27987900	      0.06842300	     -0.11940900	      1.45529100	      0.10741600	     -0.31168400	      1.29618700	      0.08373100	     -0.18753800	      1.48826200	      0.11482000	     -0.25482100	      1.28840800	      1.43011300	     -0.17423800	      1.41610600	      1.35075400	     -0.13094200	      1.42048700	      1.36013200	     -0.23706300	      1.40125700	      1.36319300	     -0.18129900	      1.48198300	      1.20029700	     -0.20395700	      1.43223200	      0.56802500	     -0.00147900	      1.67100900	      0.63588900	     -0.29898600	      1.44093500	      0.63578900	     -0.06486600	      1.58489300	      0.65756300	     -0.33560800	      1.43041700	      0.55125800	     -0.09202900	      1.60108900	      0.57160900	     -0.32562700	      1.32942400	      0.18809100	     -0.02647200	      1.49217500	      0.23947100	     -0.39935400	      1.30540500	      0.16277900	     -0.10027800	      1.47977600	      0.20376000	     -0.32626200	      1.40977300	      0.03963300	     -0.13950400	      1.58085500	      0.05354000	     -0.31338300	    -10.80704301	    541.38090836	    -19.25731564	      1.38826685	      0.00000000	     -0.14329611	      0.00000000	      0.00000000	      0.00000000	      1.83472998	      0.00000000	     -0.22894531	      0.00000000	      2.43391650	      0.00000000	      0.00000000	      0.00000000	      0.00000000	      1.39047122	      0.89585036	     -0.19927701	      1.39111936	      0.87317514	     -0.13105731	      1.39018250	      0.88104725	     -0.28127760	      1.35663557	      0.47008213	     -0.12934919	      1.55682015	      0.48670623	     -0.28530729	      1.28834081	      0.06982300	     -0.15847844	      1.47809720	      0.10314095	     -0.28033751	      1.47587895	      0.96506429	     -0.20208997	      1.47662246	      0.95881742	     -0.08288409	      1.47513533	      0.97131115	     -0.32129586	      1.28712118	      1.00270700	     -0.16742121	      1.29253268	      1.00225937	     -0.25337365	      1.37049639	      0.46913713	     -0.07252282	      1.55699825	      0.48737413	     -0.34330317	      1.33579993	      0.47737119	     -0.18147530	      1.56945515	      0.48855123	     -0.22306986	      1.27987897	      0.06842349	     -0.11940878	      1.45529068	      0.10741562	     -0.31168383	      1.29618669	      0.08373056	     -0.18753763	      1.48826182	      0.11482047	     -0.25482145	      1.28840840	      1.43011272	     -0.17423835	      1.41610622	      1.35075366	     -0.13094245	      1.42048717	      1.36013222	     -0.23706254	      1.40125704	      1.36319304	     -0.18129924	      1.48198283	      1.20029736	     -0.20395748	      1.43223190	      0.56802499	     -0.00147892	      1.67100859	      0.63588929	     -0.29898584	      1.44093478	      0.63578880	     -0.06486619	      1.58489347	      0.65756303	     -0.33560804	      1.43041706	      0.55125815	     -0.09202923	      1.60108912	      0.57160920	     -0.32562730	      1.32942426	      0.18809114	     -0.02647192	      1.49217463	      0.23947085	     -0.39935425	      1.30540478	      0.16277871	     -0.10027768	      1.47977555	      0.20376012	     -0.32626179	      1.40977335	      0.03963263	     -0.13950364	      1.58085513	      0.05354002	     -0.31338313
      0.38333000	      1.46817793	      0.95116985	     -0.20324301	      0.60956324	      3.42055956	      0.34620257	     -6.46193109	     -2.31302521	     13.69763959	     -3.50319345	      9.76475307	     22.29524166	      2.92235868	     -0.29076433	    -31.68695049	      0.04270574	     -2.77095948	     -0.83416467	      4.74090430	      0.00000000	      0.00000000	      0.00000000	      0.00000000	      1.51531304	      0.94489572	     -0.08640672	      1.51590322	      0.96556310	     -0.32366724	      1.48120144	      0.95131311	     -0.20332157	      1.32913021	      1.00290364	     -0.16889096	      1.33409907	      1.00694121	     -0.25462784	      1.40358093	      0.88443551	     -0.12897309	      1.40254361	      0.89369456	     -0.28405756	      1.40306227	      0.88906504	     -0.20651533	      1.40080148	      0.45442976	     -0.06925742	      1.34607044	      0.46757155	     -0.16618600	      1.47974773	      0.56007969	     -0.01378154	      1.47984785	      0.62595921	     -0.08359298	      1.45991721	      0.54048317	     -0.10214431	      1.28553296	      0.06044434	     -0.09089201	      1.29204795	      0.07561690	     -0.16083246	      1.35185175	      0.18196610	     -0.00892971	      1.31624692	      0.15728690	     -0.07725337	      1.35677856	      0.46780948	     -0.13555120	      1.29301652	      0.07528573	     -0.13675149	      1.41554896	      0.03485438	     -0.13577200	      1.58437948	      0.49569217	     -0.35660804	      1.57326289	      0.49633155	     -0.24650444	      1.68424222	      0.64767627	     -0.29252891	      1.60052266	      0.67802766	     -0.33324122	      1.61442073	      0.59218768	     -0.33383761	      1.48003069	      0.10224530	     -0.33134224	      1.50829441	      0.11061868	     -0.27110257	      1.52801077	      0.23454608	     -0.41603623	      1.50726514	      0.19977228	     -0.34548296	      1.56794854	      0.50474216	     -0.28680341	      1.50715947	      0.11177343	     -0.29151460	      1.61274170	      0.05968140	     -0.33727298	      1.42767119	      1.35053858	     -0.13074635	      1.43101167	      1.35940445	     -0.23866173	      1.29537194	      1.42038488	     -0.17400225	      1.41176275	      1.36165530	     -0.18179591	      1.50327315	      1.20430977	     -0.20365614	      1.40011600	      0.89511200	     -0.19969100	      1.39977800	      0.87192200	     -0.13147000	      1.39978000	      0.87997500	     -0.28168400	      1.36081200	      0.46950900	     -0.12966000	      1.56788300	      0.48572200	     -0.28484100	      1.28841100	      0.06983700	     -0.15869400	      1.50875100	      0.09874800	     -0.27991300	      1.48499700	      0.96388000	     -0.20186200	      1.48499500	      0.95749100	     -0.08268400	      1.48499800	      0.97026800	     -0.32104100	      1.29624100	      1.00158000	     -0.16821300	      1.30193300	      1.00107300	     -0.25424800	      1.37495200	      0.46839500	     -0.07290600	      1.56869700	      0.48653300	     -0.34283000	      1.34184500	      0.47542300	     -0.18168900	      1.57783600	      0.48553100	     -0.22580100	      1.28008200	      0.06850600	     -0.11959300	      1.48586700	      0.10184400	     -0.31134100	      1.29622100	      0.08368700	     -0.18773200	      1.51850900	      0.11054900	     -0.25450300	      1.29802200	      1.42910500	     -0.17411900	      1.42590200	      1.34991800	     -0.13055500	      1.43003700	      1.35887000	     -0.23699700	      1.41085100	      1.36197800	     -0.18113700	      1.49166200	      1.19918600	     -0.20322400	      1.43819100	      0.56687400	     -0.00214900	      1.68070500	      0.63575700	     -0.29683400	      1.44701600	      0.63449400	     -0.06603800	      1.59491700	      0.65704900	     -0.33416800	      1.43647400	      0.54983900	     -0.09267100	      1.61093000	      0.57095800	     -0.32595800	      1.33120000	      0.18776800	     -0.02669500	      1.51629700	      0.23559700	     -0.39902700	      1.30666900	      0.16266800	     -0.10047000	      1.50555400	      0.19878600	     -0.32597300	      1.40970300	      0.03959000	     -0.13950400	      1.61407600	      0.05446700	     -0.31236500	     -8.88612642	    547.53291633	    -19.42836561	      1.39186243	      0.00000000	     -0.14326614	      0.00000000	      0.00000000	      0.00000000	      1.83823999	      0.00000000	     -0.22979626	      0.00000000	      2.50989795	      0.00000000	      0.00000000	      0.00000000	      0.00000000	      1.40011573	      0.89511240	     -0.19969144	      1.39977789	      0.87192249	     -0.13146988	      1.39977956	      0.87997466	     -0.28168356	      1.36081219	      0.46950918	     -0.12966023	      1.56788337	      0.48572206	     -0.28484121	      1.28841138	      0.06983722	     -0.15869389	      1.50875115	      0.09874789	     -0.27991268	      1.48499656	      0.96387970	     -0.20186216	      1.48499513	      0.95749116	     -0.08268365	      1.48499787	      0.97026825	     -0.32104066	      1.29624093	      1.00158024	     -0.16821334	      1.30193317	      1.00107336	     -0.25424784	      1.37495184	      0.46839523	     -0.07290570	      1.56869674	      0.48653334	     -0.34282982	      1.34184527	      0.47542343	     -0.18168887	      1.57783639	      0.48553056	     -0.22580127	      1.28008175	      0.06850573	     -0.11959344	      1.48586679	      0.10184448	     -0.31134075	      1.29622102	      0.08368669	     -0.18773152	      1.51850855	      0.11054923	     -0.25450283	      1.29802215	      1.42910492	     -0.17411917	      1.42590237	      1.34991777	     -0.13055474	      1.43003738	      1.35886991	     -0.23699717	      1.41085124	      1.36197841	     -0.18113676	      1.49166167	      1.19918633	     -0.20322396	      1.43819141	      0.56687409	     -0.00214856	      1.68070459	      0.63575685	     -0.29683399	      1.44701600	      0.63449389	     -0.06603810	      1.59491670	      0.65704948	     -0.33416849	      1.43647385	      0.54983896	     -0.09267054	      1.61093032	      0.57095754	     -0.32595837	      1.33120036	      0.18776791	     -0.02669474	      1.51629722	      0.23559670	     -0.39902675	      1.30666935	      0.16266844	     -0.10047001	      1.50555444	      0.19878589	     -0.32597256	      1.40970290	      0.03959036	     -0.13950437	      1.61407554	      0.05446732	     -0.31236526
